<svg xmlns="http://www.w3.org/2000/svg" width="32" height="32" fill="none" viewBox="0 0 32 32">
  <defs>
    <clipPath id="a">
      <path fill="#fff" d="M0 0h32v32H0z"/>
    </clipPath>
  </defs>
  <g clip-path="url(#a)">
    <path fill="#000" d="M32 0H0v32h32V0z"/>
    <path fill="#fff" d="M16 26H4v2h12v-2zM6.474 16.109a4.749 4.749 0 01-2.343-.529 5.5 5.5 0 01-1.559-1.26l1.653-1.841c.3.34.647.636 1.031.878.346.21.745.32 1.15.315a1.508 1.508 0 001.176-.469c.322-.433.474-.97.426-1.508V4.01H10.7v7.804a5.361 5.361 0 01-.29 1.858 3.632 3.632 0 01-.834 1.33 3.532 3.532 0 01-1.338.826 5.258 5.258 0 01-1.764.28M14 4.01h5.548a4.314 4.314 0 013.124 1.06 2.742 2.742 0 01.819 2.03v.034a2.78 2.78 0 01-1.57 2.578 2.92 2.92 0 012.236 2.936v.034c0 2.185-1.776 3.277-4.473 3.277h-5.683V4.011zm6.88 3.534c0-.785-.615-1.229-1.725-1.229h-2.594v2.526h2.424c1.16 0 1.894-.375 1.894-1.263v-.034zm-1.28 3.482H16.56v2.629h3.123c1.161 0 1.861-.41 1.861-1.298v-.034c0-.802-.597-1.297-1.946-1.297z"/>
  </g>
</svg>
